<?xml version="1.0" encoding="UTF-8" standalone="no"?>
<svg
   xmlns:dc="http://purl.org/dc/elements/1.1/"
   xmlns:cc="http://web.resource.org/cc/"
   xmlns:rdf="http://www.w3.org/1999/02/22-rdf-syntax-ns#"
   xmlns:svg="http://www.w3.org/2000/svg"
   xmlns="http://www.w3.org/2000/svg"
   xmlns:sodipodi="http://sodipodi.sourceforge.net/DTD/sodipodi-0.dtd"
   xmlns:inkscape="http://www.inkscape.org/namespaces/inkscape"
   width="547.722557505"
   height="182.574185835"
   viewBox="0 0 588 196"
   id="svg2"
   sodipodi:version="0.32"
   inkscape:version="0.45.1"
   sodipodi:docname="Trane_logo.svg"
   inkscape:output_extension="org.inkscape.output.svg.inkscape"
   sodipodi:docbase="C:\">
  <metadata
     id="metadata27">
    <rdf:RDF>
      <cc:Work
         rdf:about="">
        <dc:format>image/svg+xml</dc:format>
        <dc:type
           rdf:resource="http://purl.org/dc/dcmitype/StillImage" />
      </cc:Work>
    </rdf:RDF>
  </metadata>
  <defs
     id="defs25" />
  <sodipodi:namedview
     inkscape:window-height="480"
     inkscape:window-width="640"
     inkscape:pageshadow="2"
     inkscape:pageopacity="0.0"
     guidetolerance="10.0"
     gridtolerance="10.0"
     objecttolerance="10.0"
     borderopacity="1.0"
     bordercolor="#666666"
     pagecolor="#ffffff"
     id="base" />
  <g
     transform="translate(247.313, 59.4932)"
     style="fill:#ef3c13;fill-rule:nonzero;stroke:none;stroke-width:1;stroke-linecap:butt;stroke-linejoin:miter;stroke-dasharray:none;fill-opacity:1"
     id="g4">
    <path
       d="M6.84 0 C6.84 0 70.103 0 70.103 0 C70.103 0 63.262 22.0664 63.262 22.0664 C63.262 22.0664 46.126 22.1084 46.126 22.1084 C46.126 22.1084 31.713 67.9098 31.713 67.9098 C31.713 67.9098 5.965 67.9098 5.965 67.9098 C5.965 67.9098 20.213 22.1084 20.213 22.1084 C20.213 22.1084 0 22.0664 0 22.0664 C0 22.0664 6.84 0 6.84 0 Z"
       id="path6"
       style="fill:#ef3c13;fill-opacity:1" />
  </g>
  <g
     transform="translate(300.533, 59.4932)"
     style="fill:#ef3c13;fill-rule:nonzero;stroke:none;stroke-width:1;stroke-linecap:butt;stroke-linejoin:miter;stroke-dasharray:none;fill-opacity:1"
     id="g8">
    <path
       d="M188.499 0 C188.499 0 180.044 32.4375 180.044 32.4375 C180.044 32.4375 171.269 0 171.269 0 C171.269 0 147.714 0 147.714 0 C147.714 0 130.353 55.9898 130.353 55.9898 C130.353 55.9898 124.575 0 124.575 0 C124.575 0 96.198 0 96.198 0 C96.198 0 63.833 54.5328 63.833 54.5328 C63.833 54.5328 57.156 40.5798 57.156 40.5798 C61.856 39.3759 70.683 36.292 74.209 26.792 C80.667 9.4072 69.604 0 52.802 0 C52.802 0 21.057 0 21.057 0 C21.057 0 0 67.9098 0 67.9098 C0 67.9098 25.609 67.9098 25.609 67.9098 C25.609 67.9098 34.162 41.1568 34.162 41.1568 C34.162 41.1568 43.483 67.9098 43.483 67.9098 C43.483 67.9098 55.897 67.9098 55.897 67.9098 C55.897 67.9098 70.237 67.9098 70.237 67.9098 C70.237 67.9098 82.699 67.9098 82.699 67.9098 C82.699 67.9098 88.375 55.7448 88.375 55.7448 C88.375 55.7448 107.218 55.7448 107.218 55.7448 C107.218 55.7448 107.969 67.9098 107.969 67.9098 C107.969 67.9098 126.655 67.9098 126.655 67.9098 C126.655 67.9098 131.58 67.9098 131.58 67.9098 C131.58 67.9098 151.613 67.9098 151.613 67.9098 C151.613 67.9098 161.362 34.1767 161.362 34.1767 C161.362 34.1767 167.696 67.9098 167.696 67.9098 C167.696 67.9098 193.238 67.9098 193.238 67.9098 C193.238 67.9098 214.297 0 214.297 0 C214.297 0 188.499 0 188.499 0 Z M52.301 23.3994 C51.26 26.1972 48.18 27.4765 43.84 27.4765 C43.84 27.4765 38.344 27.4765 38.344 27.4765 C38.344 27.4765 41.245 18.3867 41.245 18.3867 C41.245 18.3867 47.633 18.3867 47.633 18.3867 C51.308 18.3867 53.724 19.5996 52.301 23.3994 Z M95.562 40.6358 C95.562 40.6358 105.85 18.8486 105.85 18.8486 C105.85 18.8486 106.695 40.6358 106.695 40.6358 C106.695 40.6358 95.562 40.6358 95.562 40.6358 Z"
       id="path10"
       style="fill:#ef3c13;fill-opacity:1" />
  </g>
  <g
     transform="translate(499.417, 59.4932)"
     style="fill:#ef3c13;fill-rule:nonzero;stroke:none;stroke-width:1;stroke-linecap:butt;stroke-linejoin:miter;stroke-dasharray:none;fill-opacity:1"
     id="g12">
    <path
       d="M21.059 0 C21.059 0 69.553 0 69.553 0 C69.553 0 63.627 18.8877 63.627 18.8877 C63.627 18.8877 39.592 18.8877 39.592 18.8877 C39.592 18.8877 37.574 24.8681 37.574 24.8681 C37.574 24.8681 62.313 24.8681 62.313 24.8681 C62.313 24.8681 56.504 42.6918 56.504 42.6918 C56.504 42.6918 32.271 42.6918 32.271 42.6918 C32.271 42.6918 30.201 49.3568 30.201 49.3568 C30.201 49.3568 55.108 49.3568 55.108 49.3568 C55.108 49.3568 49.357 67.9098 49.357 67.9098 C49.357 67.9098 0 67.9098 0 67.9098 C0 67.9098 21.059 0 21.059 0 Z"
       id="path14"
       style="fill:#ef3c13;fill-opacity:1" />
  </g>
  <g
     transform="translate(0.742188, 0.332031)"
     style="fill:#ef3c13;fill-rule:nonzero;stroke:none;stroke-width:1;stroke-linecap:butt;stroke-linejoin:miter;stroke-dasharray:none;fill-opacity:1"
     id="g16">
    <path
       d="M72.9678 127.658 C72.291 127.611 72.5859 126.988 72.9267 126.988 C72.9267 126.988 191.321 125.237 191.321 125.237 C192.231 122.138 192.988 118.979 193.592 115.758 C193.592 115.758 77.208 114.343 77.208 114.343 C76.5312 114.296 76.8291 113.67 77.165 113.67 C77.165 113.67 194.181 111.903 194.181 111.903 C194.635 108.779 194.939 105.608 195.093 102.395 C195.093 102.395 81.4101 100.983 81.4101 100.983 C80.7344 100.934 81.0283 100.312 81.3682 100.312 C81.3682 100.312 195.288 98.5616 195.288 98.5616 C195.293 98.2598 195.335 97.9668 195.335 97.666 C195.335 94.8194 195.146 92.0205 194.905 89.2364 C194.905 89.2364 85.4844 87.8369 85.4844 87.8369 C84.8076 87.7871 85.1045 87.1651 85.4414 87.1651 C85.4414 87.1651 194.486 85.4336 194.486 85.4336 C194.072 82.127 193.494 78.878 192.755 75.6768 C192.755 75.6768 89.8555 74.2647 89.8555 74.2647 C89.1797 74.2168 89.4726 73.5957 89.8115 73.5957 C89.8115 73.5957 191.778 71.8653 191.778 71.8653 C190.923 68.7442 189.923 65.6914 188.776 62.7051 C188.776 62.7051 93.8857 61.3282 93.8857 61.3282 C93.2099 61.2803 93.5068 60.6563 93.8428 60.6563 C93.8428 60.6563 187.333 58.9785 187.333 58.9785 C172.344 24.292 137.853 0 97.665 0 C49.7812 0 10.0195 34.4873 1.68066 79.9639 C1.68066 79.9639 142.007 77.7754 142.007 77.7754 C142.007 77.7754 140.157 83.5918 140.157 83.5918 C140.157 83.5918 1.49707 81.1563 1.49707 81.1563 C0.829102 85.1016 0.410152 89.1201 0.226562 93.209 C0.226562 93.209 137.806 91.0518 137.806 91.0518 C137.806 91.0518 135.958 96.8682 135.958 96.8682 C135.958 96.8682 0.163085 94.4678 0.163085 94.4678 C0.125 95.5391 0 96.5869 0 97.666 C0 100.672 0.183593 103.635 0.451172 106.574 C0.451172 106.574 133.604 104.41 133.604 104.41 C133.604 104.41 131.757 110.226 131.757 110.226 C131.757 110.226 0.532222 107.816 0.532222 107.816 C0.956052 111.927 1.71386 115.922 2.63086 119.861 C2.63086 119.861 129.405 117.681 129.405 117.681 C129.405 117.681 127.556 123.498 127.556 123.498 C127.556 123.498 2.94336 121.086 2.94336 121.086 C3.93359 125.089 5.15234 128.994 6.61719 132.787 C6.61719 132.787 125.289 130.706 125.289 130.706 C125.289 130.706 123.44 136.524 123.44 136.524 C123.44 136.524 7.09179 134.085 7.09179 134.085 C8.75683 138.225 10.7021 142.208 12.9004 146.046 C12.9004 146.046 121.171 143.897 121.171 143.897 C121.171 143.897 119.321 149.713 119.321 149.713 C119.321 149.713 13.6875 147.345 13.6875 147.345 C16.1621 151.516 18.8711 155.53 21.916 159.275 C21.916 159.275 116.97 157.086 116.97 157.086 C116.97 157.086 115.121 162.903 115.121 162.903 C115.121 162.903 22.9512 160.504 22.9512 160.504 C40.8682 181.781 67.6728 195.336 97.665 195.336 C140.612 195.336 176.998 167.575 190.083 129.058 C190.083 129.058 72.9678 127.658 72.9678 127.658 Z"
       id="path18"
       style="fill:#ef3c13;fill-opacity:1" />
  </g>
  <g
     transform="translate(571.565, 59.3779)"
     style="fill:#ef3c13;fill-rule:nonzero;stroke:none;stroke-width:1;stroke-linecap:butt;stroke-linejoin:miter;stroke-dasharray:none;fill-opacity:1"
     id="g20">
    <path
       d="M6.557 12.6465 C6.557 12.6465 4.754 12.6465 4.754 12.6465 C4.754 12.6465 4.754 3.7842 4.754 3.7842 C4.754 3.7842 7.898 3.7842 7.898 3.7842 C10.072 3.7842 11.353 4.4366 11.353 6.4619 C11.353 8.0918 10.439 8.6826 9.32 8.7686 C9.32 8.7686 11.471 12.6465 11.471 12.6465 C11.471 12.6465 9.343 12.6465 9.343 12.6465 C9.343 12.6465 7.406 8.9248 7.406 8.9248 C7.406 8.9248 6.557 8.9248 6.557 8.9248 C6.557 8.9248 6.557 12.6465 6.557 12.6465 Z M8.148 7.42 C8.953 7.42 9.43 7.2442 9.43 6.2666 C9.43 5.3516 8.499 5.2862 7.811 5.2862 C7.811 5.2862 6.557 5.2862 6.557 5.2862 C6.557 5.2862 6.557 7.42 6.557 7.42 C6.557 7.42 8.148 7.42 8.148 7.42 Z M7.858 16.4532 C3.707 16.4532 0 13.4287 0 8.2246 C0 3.0244 3.707 0 7.858 0 C11.995 0 15.693 3.0244 15.693 8.2246 C15.693 13.4287 11.995 16.4532 7.858 16.4532 Z M7.858 1.9151 C4.754 1.9151 2.252 4.4366 2.252 8.2246 C2.252 12.0127 4.754 14.5537 7.858 14.5391 C7.858 14.5391 7.858 14.5537 7.858 14.5537 C10.875 14.5537 13.437 12.0127 13.437 8.2246 C13.437 4.4366 10.875 1.9151 7.858 1.9151 Z"
       id="path22"
       style="fill:#ef3c13;fill-opacity:1" />
  </g>
</svg>
